<?xml version="1.0" encoding="UTF-8" standalone="no"?>
<!DOCTYPE svg PUBLIC "-//W3C//DTD SVG 1.1//EN" "http://www.w3.org/Graphics/SVG/1.1/DTD/svg11.dtd">
<svg width="100%" height="100%" viewBox="0 0 1200 1200" version="1.1" xmlns="http://www.w3.org/2000/svg" xmlns:xlink="http://www.w3.org/1999/xlink" xml:space="preserve" xmlns:serif="http://www.serif.com/" style="fill-rule:evenodd;clip-rule:evenodd;stroke-linecap:round;stroke-linejoin:round;">
    <g transform="matrix(1.22971,0,0,1.22971,-137.827,-378.06)">
        <g transform="matrix(1,0,0,1,0,110.733)">
            <g>
                <g transform="matrix(1,0,0,1,576.918,976.998)">
                    <path d="M495.195,-30C487.189,-31.246 470.507,-33.034 448.429,-35.091C379.486,-41.513 257.794,-50.561 182.287,-53.951C161.157,-54.9 143.64,-55.406 131.917,-55.287C64.883,-54.606 -325.063,-48.985 -396.603,-24.767C-396.603,-24.767 -535.199,11.346 -417.338,18.914C-401.584,19.926 -385.755,21.293 -369.833,22.892C-266.633,33.253 -159.367,53.657 -41.22,54.594C10.126,55.001 83.439,55.407 156.906,55.237C278.57,54.956 400.656,53.093 424.091,47.025C461.678,37.295 454.11,10.595 471.409,8.268C488.709,5.94 535.199,-23.773 495.195,-30Z" style="fill:rgb(115,212,223);fill-rule:nonzero;"/>
                </g>
                <g transform="matrix(1,0,0,1,616.217,977.726)">
                    <path d="M389.162,-4.321C396.861,-14.821 402.624,-25.32 409.131,-35.819C340.187,-42.242 218.495,-51.29 142.988,-54.68C103.036,-33.694 55.239,-27.413 11.007,-23.533C-109.316,-13.422 -224.582,-35.666 -346.926,-11.399C-370.118,-6.048 -401.949,-2.256 -409.131,22.163C-305.931,32.525 -198.665,52.929 -80.518,53.866C-29.173,54.273 44.141,54.679 117.607,54.508C171.95,43.257 228.742,45.779 284.007,42.19C323.44,39.157 363.885,30.056 389.162,-4.321Z" style="fill:rgb(146,226,238);fill-rule:nonzero;"/>
                </g>
            </g>
            <g transform="matrix(0.99867,-0.0515678,0.0515678,0.99867,-45.2653,21.6023)">
                <g transform="matrix(1,0,0,1,291.414,821.868)">
                    <path d="M58.643,85.019C52.906,100.371 19.087,107.789 18.453,56.368C17.818,4.948 -11.462,51.096 -30.999,45.555C-39.6,43.117 -68.334,22.913 -43.999,-0.283C-21.399,-21.824 -65.23,-0.569 -96.795,-24.529C-116.811,-39.722 -117.136,-79.308 -89.347,-93.548C-61.558,-107.79 -25.702,-88.382 -21.999,-55.076C-20.071,-37.732 6.224,-52.08 5.764,-78.465C5.454,-96.232 42.164,-91.133 42.596,-66.367C43.048,-40.426 49.993,-20.924 71.424,-31.724C92.855,-42.525 114.574,-18.709 105.387,4.023C96.2,26.756 117.137,64.843 108.012,69.766C98.887,74.69 68.25,95.044 58.643,85.019Z" style="fill:rgb(112,232,244);fill-rule:nonzero;"/>
                </g>
                <g transform="matrix(1,0,0,1,300.182,822.107)">
                    <path d="M-92.371,-64.828C-92.371,-64.828 42.048,5.428 92.371,64.828" style="fill-opacity:0;fill-rule:nonzero;stroke:rgb(253,253,253);stroke-width:2.2px;"/>
                </g>
                <g transform="matrix(1,0,0,1,234.139,759.252)">
                    <path d="M-7.525,-16.215C-7.525,-16.215 6.118,-4.278 7.525,16.215" style="fill-opacity:0;fill-rule:nonzero;stroke:rgb(253,253,253);stroke-width:2.2px;"/>
                </g>
                <g transform="matrix(1,0,0,1,239.772,793.808)">
                    <path d="M-19.326,-4.527C-18.572,-4.435 -0.606,7.359 19.326,-7.359" style="fill-opacity:0;fill-rule:nonzero;stroke:rgb(253,253,253);stroke-width:2.2px;"/>
                </g>
                <g transform="matrix(1,0,0,1,330.875,792.677)">
                    <path d="M-12.837,-38.62C-12.837,-38.62 12.837,12 -1.12,38.62" style="fill-opacity:0;fill-rule:nonzero;stroke:rgb(253,253,253);stroke-width:2.2px;"/>
                </g>
                <g transform="matrix(1,0,0,1,291.687,838.432)">
                    <path d="M-29.973,7.923C-29.973,7.923 10.938,11.374 29.973,-11.374" style="fill-opacity:0;fill-rule:nonzero;stroke:rgb(253,253,253);stroke-width:2.2px;"/>
                </g>
                <g transform="matrix(1,0,0,1,358.894,830.338)">
                    <path d="M3.079,26.772C3.079,26.772 6.704,-11.477 -6.703,-26.772" style="fill-opacity:0;fill-rule:nonzero;stroke:rgb(253,253,253);stroke-width:2.2px;"/>
                </g>
                <g transform="matrix(1,0,0,1,371.517,817.324)">
                    <path d="M-11.05,10.672C-11.05,10.672 11.051,3.605 10.723,-10.672" style="fill-opacity:0;fill-rule:nonzero;stroke:rgb(253,253,253);stroke-width:2.2px;"/>
                </g>
                <g transform="matrix(1,0,0,1,350.876,892.553)">
                    <path d="M-32.01,-10.498C-32.01,-10.498 -7.542,15.788 32.01,-15.789" style="fill-opacity:0;fill-rule:nonzero;stroke:rgb(253,253,253);stroke-width:2.2px;"/>
                </g>
                <g transform="matrix(1,0,0,1,338.925,877.61)">
                    <path d="M-11,-14.313C-11,-14.313 -0.953,11.594 11,14.313" style="fill-opacity:0;fill-rule:nonzero;stroke:rgb(253,253,253);stroke-width:2.2px;"/>
                </g>
                <g transform="matrix(1,0,0,1,318.08,784.28)">
                    <path d="M-13.594,-16.987C-13.45,-16.28 1.403,16.987 13.595,13.037" style="fill-opacity:0;fill-rule:nonzero;stroke:rgb(253,253,253);stroke-width:2.2px;"/>
                </g>
                <g transform="matrix(1,0,0,1,283.016,832.339)">
                    <path d="M-14.966,-9.094C-14.966,-9.094 6.73,-2.471 14.966,9.094" style="fill-opacity:0;fill-rule:nonzero;stroke:rgb(253,253,253);stroke-width:2.2px;"/>
                </g>
            </g>
            <g transform="matrix(0.999627,0.0273093,-0.0273093,0.999627,14.7116,-22.0607)">
                <g transform="matrix(1,0,0,1,893.465,418.299)">
                    <path d="M-89.871,63.323C-104.939,56.879 -110.777,22.752 -59.383,24.509C-7.988,26.265 -49.892,-4.403 -46.283,-24.386C-42.71,-44.176 -16.762,-68.322 0.109,-35.242C14.294,-7.429 8.106,-51.384 26.784,-86.854C38.493,-109.089 84.91,-122.692 97.844,-94.271C110.777,-65.85 88.24,-40.345 58.922,-24.115C32.012,-9.219 54.306,22.767 78.143,11.445C97.363,2.314 89.675,64.784 62.098,54.332C37.836,45.137 16.359,59.609 26.152,81.518C35.944,103.428 13.809,114.901 -8.473,104.668C-30.754,94.434 -72.435,122.693 -76.93,113.349C-81.424,104.005 -100.332,72.454 -89.871,63.323Z" style="fill:rgb(118,233,244);fill-rule:nonzero;"/>
                </g>
                <g transform="matrix(1,0,0,1,890.6,435.742)">
                    <path d="M69.052,-89.258C69.052,-89.258 -7.376,41.75 -69.052,89.258" style="fill-opacity:0;fill-rule:nonzero;stroke:rgb(253,253,253);stroke-width:2.2px;"/>
                </g>
                <g transform="matrix(1,0,0,1,956.458,372.693)">
                    <path d="M16.547,-6.764C16.547,-6.764 3.989,6.31 -16.547,6.764" style="fill-opacity:0;fill-rule:nonzero;stroke:rgb(253,253,253);stroke-width:2.2px;"/>
                </g>
                <g transform="matrix(1,0,0,1,921.242,376.99)">
                    <path d="M5.856,-19.372C5.729,-18.623 -6.887,-1.224 6.888,19.372" style="fill-opacity:0;fill-rule:nonzero;stroke:rgb(253,253,253);stroke-width:2.2px;"/>
                </g>
                <g transform="matrix(1,0,0,1,919.37,463.659)">
                    <path d="M39.323,-16.377C39.323,-16.377 -13.381,16.377 -39.323,1.198" style="fill-opacity:0;fill-rule:nonzero;stroke:rgb(253,253,253);stroke-width:2.2px;"/>
                </g>
                <g transform="matrix(1,0,0,1,872.211,421.852)">
                    <path d="M2.33,-35.116C2.33,-35.116 -12.446,15.881 12.446,35.116" style="fill-opacity:0;fill-rule:nonzero;stroke:rgb(253,253,253);stroke-width:2.2px;"/>
                </g>
                <g transform="matrix(1,0,0,1,879.733,494.897)">
                    <path d="M-26.97,0.941C-26.97,0.941 11.069,6.34 26.971,-6.341" style="fill-opacity:0;fill-rule:nonzero;stroke:rgb(253,253,253);stroke-width:2.2px;"/>
                </g>
                <g transform="matrix(1,0,0,1,889.438,501.072)">
                    <path d="M-7.688,-4.595C-7.688,-4.595 -6.588,4.259 7.688,4.595" style="fill-opacity:0;fill-rule:nonzero;stroke:rgb(253,253,253);stroke-width:2.2px;"/>
                </g>
                <g transform="matrix(1,0,0,1,817.306,483.717)">
                    <path d="M12.543,-32.098C12.543,-32.098 -14.853,-8.879 14.853,32.098" style="fill-opacity:0;fill-rule:nonzero;stroke:rgb(253,253,253);stroke-width:2.2px;"/>
                </g>
                <g transform="matrix(1,0,0,1,833.357,471.863)">
                    <path d="M14.809,-10.323C14.809,-10.323 -11.538,-1.49 -14.809,10.323" style="fill-opacity:0;fill-rule:nonzero;stroke:rgb(253,253,253);stroke-width:2.2px;"/>
                </g>
                <g transform="matrix(1,0,0,1,916.789,456.473)">
                    <path d="M5.805,-9.911C5.092,-9.801 -5.805,-0.587 -2.966,9.911" style="fill-opacity:0;fill-rule:nonzero;stroke:rgb(253,253,253);stroke-width:2.2px;"/>
                </g>
                <g transform="matrix(1,0,0,1,878.226,422.415)">
                    <path d="M4.004,-9.971C4.004,-9.971 5.968,2.282 -5.969,9.971" style="fill-opacity:0;fill-rule:nonzero;stroke:rgb(253,253,253);stroke-width:2.2px;"/>
                </g>
            </g>
            <g transform="matrix(0.970027,0,0,0.970027,19.9049,28.2897)">
                <g transform="matrix(1,0,0,1,671.124,663.978)">
                    <path d="M-4.953,-279.482L-188.359,-195.871C-192.615,-193.93 -195.348,-189.683 -195.348,-185.005L-195.348,97.993C-195.348,101.318 -193.96,104.493 -191.521,106.753L-8.116,276.674C-3.537,280.916 3.536,280.916 8.115,276.674L191.521,106.753C193.96,104.493 195.347,101.318 195.347,97.993L195.347,-185.005C195.347,-189.683 192.615,-193.93 188.358,-195.871L4.953,-279.482C1.807,-280.916 -1.807,-280.916 -4.953,-279.482Z" style="fill:rgb(6,90,94);fill-rule:nonzero;"/>
                </g>
                <g transform="matrix(1,0,0,1,657.059,663.978)">
                    <path d="M-4.953,-279.482L-188.358,-195.871C-192.615,-193.93 -195.348,-189.683 -195.348,-185.005L-195.348,97.993C-195.348,101.318 -193.96,104.493 -191.521,106.753L-8.116,276.674C-3.537,280.916 3.536,280.916 8.115,276.674L191.521,106.753C193.96,104.493 195.347,101.318 195.347,97.993L195.347,-185.005C195.347,-189.683 192.615,-193.93 188.358,-195.871L4.953,-279.482C1.807,-280.916 -1.807,-280.916 -4.953,-279.482Z" style="fill:rgb(253,253,253);fill-rule:nonzero;"/>
                </g>
                <g transform="matrix(1,0,0,1,657.059,663.913)">
                    <path d="M-4.034,-227.653L-153.428,-159.548C-156.895,-157.967 -159.12,-154.508 -159.12,-150.697L-159.12,79.82C-159.12,82.529 -157.991,85.115 -156.004,86.955L-6.611,225.366C-2.882,228.821 2.882,228.821 6.612,225.366L156.005,86.955C157.992,85.115 159.12,82.529 159.12,79.82L159.12,-150.697C159.12,-154.508 156.896,-157.967 153.428,-159.548L4.034,-227.653C1.472,-228.821 -1.471,-228.821 -4.034,-227.653Z" style="fill:rgb(29,57,107);fill-rule:nonzero;"/>
                </g>
                <g transform="matrix(1,0,0,1,662.143,668.141)">
                    <path d="M-3.905,-223.431L-148.526,-156.589C-151.882,-155.038 -154.036,-151.642 -154.036,-147.903L-154.036,78.34C-154.036,80.998 -152.943,83.536 -151.019,85.342L-6.398,221.185C-2.788,224.577 2.789,224.577 6.401,221.185L151.021,85.342C152.945,83.536 154.036,80.998 154.036,78.34L154.036,-147.903C154.036,-151.642 151.884,-155.038 148.528,-156.589L3.906,-223.431C1.425,-224.577 -1.424,-224.577 -3.905,-223.431Z" style="fill:rgb(146,226,238);fill-rule:nonzero;"/>
                </g>
            </g>
            <g transform="matrix(0.970027,0,0,0.970027,657.27,628.994)">
                <g opacity="0.91">
                    <path d="M106.366,-25.077L25.154,-25.107L25.032,-105.998L-24.784,-105.998L-24.768,-24.969L-106.258,-24.985L-106.274,24.969L-24.876,24.969L-24.893,106.919L25.086,106.754L25.084,24.989L106.361,25.015L106.366,-25.077Z" style="fill:rgb(230,94,117);fill-rule:nonzero;"/>
                </g>
            </g>
            <g transform="matrix(0.970027,0,0,0.970027,657.27,628.994)">
                <g>
                    <path d="M104.855,-23.411L23.412,-23.411L23.412,-104.855L-23.411,-104.855L-23.411,-23.411L-104.855,-23.411L-104.855,23.412L-23.411,23.412L-23.411,104.855L23.412,104.855L23.412,23.412L104.855,23.412L104.855,-23.411Z" style="fill:rgb(230,94,117);fill-rule:nonzero;"/>
                </g>
            </g>
        </g>
        <g transform="matrix(1,0,0,1,719,472.733)">
            <g transform="matrix(1,0,0,1,195.024,591.439)">
                <g>
                    <path d="M-35.101,17.947C-35.101,17.947 -35.448,8.803 -25.294,6.997C-15.141,5.189 1.692,-1.438 1.692,-1.438L2.672,-21.743L22.266,-19.213L24.582,-3.489C24.582,-3.489 28.323,-4.754 29.035,-1.139C29.748,2.476 35.448,17.658 32.064,18.382C28.679,19.104 11.383,19.218 10.91,18.422C10.438,17.624 10.643,15.914 10.643,15.914C10.643,15.914 -20.612,20.802 -22.222,20.929C-32.576,21.743 -35.101,17.947 -35.101,17.947Z" style="fill-rule:nonzero;"/>
                </g>
            </g>
            <g transform="matrix(0.998867,-0.0475818,0.0475818,0.998867,208.21,507.874)">
                <g>
                    <path d="M-21.154,-55.348C-21.304,8.999 -21.297,73.093 -20.681,75.235C-19.434,79.573 17.617,77.766 17.617,77.766L21.304,-55.667C19.342,-79.573 -18.619,-75.915 -21.154,-55.348Z" style="fill:rgb(22,44,81);fill-rule:nonzero;"/>
                </g>
            </g>
            <g transform="matrix(0.995472,0.0950559,-0.0950559,0.995472,212.924,397.155)">
                <g>
                    <path d="M-22.653,-76.051C-22.653,-76.051 -22.972,-9.809 -23.126,56.167C-19.67,79.118 14.742,81.473 19.271,58.064L23.126,-81.473L-22.653,-76.051Z" style="fill:rgb(22,44,81);fill-rule:nonzero;"/>
                </g>
            </g>
            <g transform="matrix(1,0,0,1,274.636,598.62)">
                <g>
                    <path d="M-18.529,14.68C-18.529,14.68 -16.308,15.772 -0.349,16.594C16.23,17.448 16.43,16.909 16.43,16.909C16.43,16.909 19.526,15.748 20.141,13.703C20.575,12.257 22.724,5.389 17.201,3.039C11.925,0.794 9.537,-1.232 9.537,-1.232C9.537,-1.232 9.138,-6.096 8.339,-6.096C7.54,-6.096 5.943,-6.604 5.943,-6.604L5.342,-17.448L-18.13,-16.435L-17.831,-5.185L-19.927,-4.474C-19.927,-4.474 -22.724,13.565 -18.529,14.68Z" style="fill-rule:nonzero;"/>
                </g>
            </g>
            <g transform="matrix(0.999898,0.0142794,-0.0142794,0.999898,264.162,507.198)">
                <g>
                    <path d="M16.783,-61.075C9.232,-79.411 -21.788,-76.866 -24.778,-55.202C-19.73,-4.092 -15.085,44.513 -14.767,53.385C-14.054,73.267 -12.273,76.52 -2.654,77.605C6.965,78.689 24.778,79.411 24.422,73.267C24.234,70.038 20.31,3.45 16.783,-61.075Z" style="fill:rgb(22,44,81);fill-rule:nonzero;"/>
                </g>
            </g>
            <g transform="matrix(0.999275,0.0380708,-0.0380708,0.999275,256.975,392.745)">
                <g>
                    <path d="M26.835,53.195C23.648,-5.097 20.785,-61.704 21.292,-68.396C22.361,-82.493 24.498,-77.433 14.523,-77.433C4.548,-77.433 -28.313,-75.978 -27.872,-71.65C-27.872,-71.65 -20.99,-4.361 -14.727,59.068C-8.793,82.492 28.314,79.976 26.835,53.195Z" style="fill:rgb(22,44,81);fill-rule:nonzero;"/>
                </g>
            </g>
            <g transform="matrix(0.999443,0.0333867,-0.0333867,0.999443,-347.898,-403.723)">
                <g transform="matrix(1,0,0,1,603.118,618.462)">
                    <path d="M-34,-73.337L-9.82,-82.826C-9.82,-82.826 9.018,-87.164 11.957,-86.757C14.895,-86.35 40.012,-75.505 42.417,-73.337C44.821,-71.168 40.947,73.336 39.879,78.217C38.81,83.097 -12.225,87.163 -21.309,86.079C-30.394,84.994 -43.219,81.198 -44.021,80.386C-44.822,79.572 -41.883,-66.017 -38.944,-69.27C-36.005,-72.524 -34,-73.337 -34,-73.337Z" style="fill:rgb(80,115,209);fill-rule:nonzero;"/>
                </g>
                <g transform="matrix(1,0,0,1,601.482,703.66)">
                    <path d="M-7.938,-7.754L-7.938,8.185L7.938,8.185L7.938,-8.185L-7.938,-7.754Z" style="fill:rgb(145,184,235);fill-rule:nonzero;"/>
                </g>
                <g transform="matrix(1,0,0,1,601.481,703.659)">
                    <path d="M-6.115,-5.973L-6.115,6.304L6.115,6.304L6.115,-6.304L-6.115,-5.973Z" style="fill:rgb(253,253,253);fill-rule:nonzero;"/>
                </g>
            </g>
            <g transform="matrix(0.999165,0.040863,-0.040863,0.999165,-343.739,-408.254)">
                <g transform="matrix(1,0,0,1,639.867,671.7)">
                    <path d="M17.128,1.869C16.304,1.836 15.482,1.77 14.673,1.681C15.483,1.77 16.304,1.836 17.128,1.869C16.817,-3.008 16.634,-7.229 16.619,-10.547C16.597,-15.47 16.582,-21.803 16.572,-28.936L16.576,-28.936C16.574,-30.381 16.573,-31.862 16.571,-33.368C16.951,-46.488 17.453,-79.599 16.623,-95.347C16.612,-95.333 16.6,-95.304 16.589,-95.288C16.606,-110.323 16.623,-121.017 16.623,-121.017L-14.105,-137.626C-14.105,-137.626 -10.831,-133.584 -10.564,-131.279C-10.297,-128.975 -27.063,-77.684 -29.558,-74.069C-30.163,-73.192 -30.256,-60.493 -30.007,-41.735C-29.878,-41.691 -29.744,-41.641 -29.615,-41.595C-29.877,-39.941 -30.159,-27.677 -30.008,-20.45C-30.019,-19.864 -24.856,134.49 -22.788,136.406C-18.646,137.626 29.582,123.303 29.939,122.218C30.255,121.254 19.594,40.596 17.128,1.869Z" style="fill:white;fill-rule:nonzero;"/>
                </g>
                <g transform="matrix(1,0,0,1,632.249,609.963)">
                    <path d="M-6.859,-1.203L-6.68,1.025L6.679,1.292L6.858,-1.292L-6.859,-1.203Z" style="fill:rgb(121,121,204);fill-rule:nonzero;"/>
                </g>
                <g transform="matrix(1,0,0,1,647.601,624.961)">
                    <path d="M8.885,36.192C8.863,31.212 8.848,24.791 8.838,17.555C8.789,17.555 9.833,-30.703 8.889,-48.608C6.781,-45.725 -2.429,-6.53 -3.936,-2.054C-5.942,3.902 -6.5,7.988 -9.205,17.776C-9.833,20.047 -9.55,22.482 -8.38,24.529C-3.618,32.863 7.972,48.55 9.393,48.608C9.082,43.731 8.9,39.51 8.885,36.192Z" style="fill:rgb(185,179,182);fill-rule:nonzero;"/>
                </g>
                <g transform="matrix(1,0,0,1,627.395,573.605)">
                    <path d="M12.692,-30.135L11.182,-3.5L3.444,-0.971L9.295,-0.388C9.295,-0.388 -5.898,28.774 -9.106,29.357C-12.314,29.94 -12.692,30.038 -12.692,30.038C-12.692,30.038 -8.446,30.135 -7.879,29.844C-7.313,29.552 10.651,-0.923 10.651,-0.923L7.218,-1.178L12.279,-3.329L12.692,-30.135Z" style="fill:rgb(185,179,182);fill-rule:nonzero;"/>
                </g>
                <g transform="matrix(1,0,0,1,641.122,748.218)">
                    <path d="M-15.797,-13.757C-15.797,-13.757 -14.737,18.78 -8.961,18.78C-3.185,18.78 16.267,17.225 16.386,16.148C16.504,15.072 13.762,-16.627 11.714,-17.704C9.666,-18.78 -16.504,-16.149 -15.797,-13.757Z" style="fill:rgb(215,211,213);fill-rule:nonzero;"/>
                </g>
                <g transform="matrix(1,0,0,1,640.903,746.814)">
                    <path d="M-14.754,-12.681C-14.754,-12.681 -13.764,17.313 -8.368,17.313C-2.973,17.313 15.195,15.879 15.306,14.886C15.415,13.894 12.853,-15.327 10.94,-16.321C9.028,-17.313 -15.414,-14.887 -14.754,-12.681Z" style="fill:white;fill-rule:nonzero;"/>
                </g>
            </g>
            <g transform="matrix(0.999664,0.0259086,-0.0259086,0.999664,-352.017,-399.389)">
                <g transform="matrix(1,0,0,1,568.494,671.507)">
                    <path d="M26.942,-138.378C26.942,-138.378 -0.501,-131.929 -7.918,-125.239C-15.251,-117.429 -15.092,-101.83 -15.69,-87.726C-18.215,-28.139 -17.994,92.994 -26.942,122.474C-10.911,131.511 17.224,138.378 17.224,138.378C17.224,138.378 25.784,45.054 23.647,24.81C21.509,4.567 26.497,-69.176 26.497,-69.176C26.497,-69.176 19.372,-90.865 19.372,-107.855C19.372,-124.845 22.199,-134.61 26.942,-138.378Z" style="fill:white;fill-rule:nonzero;"/>
                </g>
                <g transform="matrix(1,0,0,1,583.441,573.926)">
                    <path d="M-4.453,-31.088L-10.465,-1.13L-0.578,0.633L-8.862,4.564C-8.862,4.564 3.385,30.094 4.587,30.591C5.789,31.088 10.287,30.184 10.376,30.003C10.465,29.822 5.967,30.682 5.166,29.822C4.364,28.964 -7.058,5.479 -6.591,5.207C-6.123,4.936 1.781,0.226 1.781,0.226L-7.08,-2.485L-4.453,-31.088Z" style="fill:rgb(185,179,182);fill-rule:nonzero;"/>
                </g>
                <g transform="matrix(1,0,0,1,555.779,643.739)">
                    <path d="M-5.506,53.099C-5.506,53.099 -3.966,12.831 -3.273,-6.287C-3.273,-6.287 -3.994,-58.075 -2.428,-69.996C-0.225,-61.157 12.257,35.678 10.432,42.908C8.606,50.137 -1.982,62.362 -1.982,62.362L-5.756,67.928L-5.506,53.099Z" style="fill:rgb(185,179,182);fill-rule:nonzero;"/>
                </g>
                <g transform="matrix(1,0,0,1,571.126,750.195)">
                    <path d="M14.133,-12.307C14.133,-12.307 13.184,16.802 8.016,16.802C2.847,16.802 -14.556,15.411 -14.662,14.448C-14.767,13.485 -12.314,-14.876 -10.482,-15.839C-8.65,-16.802 14.766,-14.448 14.133,-12.307Z" style="fill:rgb(215,211,213);fill-rule:nonzero;"/>
                </g>
                <g transform="matrix(1,0,0,1,570.925,749.393)">
                    <path d="M13.597,-11.799C13.597,-11.799 12.711,15.036 7.884,15.036C3.056,15.036 -12.104,15.944 -13.695,13.552C-14.188,12.81 -11.105,-14.167 -9.393,-15.055C-7.682,-15.943 14.188,-13.772 13.597,-11.799Z" style="fill:white;fill-rule:nonzero;"/>
                </g>
            </g>
            <g transform="matrix(0.999443,0.0333867,-0.0333867,0.999443,-347.898,-403.723)">
                <g transform="matrix(1,0,0,1,609.018,538.98)">
                    <path d="M-11.578,-12.63L-13.315,13.059C-13.315,13.059 -2.36,23.497 2.628,22.864C7.616,22.232 13.316,10.573 13.316,10.573C13.316,10.573 10.554,-9.942 10.554,-16.719C10.554,-23.497 -11.578,-12.63 -11.578,-12.63Z" style="fill:rgb(255,184,182);fill-rule:nonzero;"/>
                </g>
                <g transform="matrix(1,0,0,1,597.273,549.988)">
                    <path d="M-1.837,-16.859C-1.837,-16.859 -10.855,-12.521 -6.914,0.018C-2.973,12.557 -0.501,17.437 -0.501,17.437C-0.501,17.437 4.91,6.932 10.855,5.711C4.642,2.933 -4.148,-8.169 -0.407,-15.15C-0.363,-15.794 -0.178,-16.859 -0.295,-17.318C-0.326,-17.436 -1.837,-16.859 -1.837,-16.859Z" style="fill:rgb(71,124,183);fill-rule:nonzero;"/>
                </g>
                <g transform="matrix(1,0,0,1,618.261,550.05)">
                    <path d="M-11.069,6.733C-11.069,6.733 -4.923,11.071 -3.676,17.397C4.518,11.252 9.85,-4.401 10.17,-5.756C10.302,-6.313 11.069,-7.819 11.042,-9.508C11.007,-11.731 7.87,-15.486 7.5,-15.976C7.361,-16.16 2.126,-17.36 2.058,-17.397C2.058,-17.397 4.562,0.294 -11.069,6.733Z" style="fill:rgb(71,124,183);fill-rule:nonzero;"/>
                </g>
                <g transform="matrix(1,0,0,1,602.561,619.501)">
                    <path d="M-4.854,-59.193L-0.445,-43.197C-0.445,-43.197 -11.489,21.509 -11.667,26.028C-11.845,30.546 -7.392,62.176 -5.254,62.176C-3.117,62.176 6.324,28.016 5.967,21.328C5.611,14.641 3.652,-43.559 3.652,-43.559L11.846,-57.114L6.324,-62.175L0.98,-62.175L-4.854,-59.193Z" style="fill:rgb(110,23,77);fill-rule:nonzero;"/>
                </g>
            </g>
            <g transform="matrix(0.864471,-0.502682,0.502682,0.864471,173.997,332.93)">
                <g>
                    <path d="M0,-20.289C0,-20.289 -10.688,-3.53 -8.55,4.151C-6.413,11.833 -2.672,19.425 0,20.148C2.672,20.87 6.146,16.171 4.631,9.122C3.117,2.073 3.919,-1.451 4.631,-1.993C5.344,-2.536 6.324,0.176 5.7,1.893C5.077,3.609 5.611,5.778 6.769,5.236C7.927,4.694 10.234,-6.264 10.688,-10.76C11.717,-20.948 1.336,-20.871 0,-20.289Z" style="fill:rgb(93,171,255);fill-rule:nonzero;"/>
                </g>
            </g>
            <g transform="matrix(0.924211,-0.381882,0.381882,0.924211,167.739,279.093)">
                <g>
                    <path d="M-20.543,33.251C-20.543,33.251 -14.648,43.581 -3.373,42.158C7.903,40.736 23.827,-29.646 22.701,-36.778C21.868,-42.053 13.937,-50.044 5.102,-48.15C-1.661,-46.7 -4.781,-40.05 -6.94,-33.486C-8.868,-27.627 -23.842,29.212 -20.543,33.251Z" style="fill:rgb(251,249,250);fill-rule:nonzero;"/>
                </g>
            </g>
            <g transform="matrix(0.91222,0.4097,-0.4097,0.91222,176.279,210.817)">
                <g>
                    <path d="M7.163,-54.297C14.123,-50.688 16.682,-39.51 14.849,-6.871C12.981,26.385 14.557,38.367 7.343,44.332C0.129,50.297 -13.273,45.084 -14.342,36.68C-15.41,28.274 -11,-34.168 -9.085,-41.82C-6.326,-52.844 0.203,-57.906 7.163,-54.297Z" style="fill:rgb(252,250,251);fill-rule:nonzero;"/>
                </g>
            </g>
            <g transform="matrix(-0.232131,-0.551802,0.551802,-0.232131,287.153,326.397)">
                <g>
                    <path d="M26.544,8.8C26.544,8.8 17.05,3.698 18.215,0.87C21.097,-6.129 15.252,-16.185 11.893,-13.107C11.893,-13.107 9.798,-25.163 -0.338,-23.715C-26.544,-19.971 -13.817,2.848 -10.072,7.526C-6.326,12.203 12.021,26.913 12.021,26.913C12.021,26.913 21.937,23.163 24.411,20.292C26.885,17.421 26.544,8.8 26.544,8.8Z" style="fill:rgb(93,171,255);fill-rule:nonzero;"/>
                </g>
            </g>
            <g transform="matrix(0.220381,-0.975414,0.975414,0.220381,305.984,282.652)">
                <g>
                    <path d="M-34.292,-16.182C-34.292,-16.182 -41.773,-11.6 -39.992,-0.213C-38.211,11.173 21.974,19.329 26.288,19.325C31.982,19.32 38.226,16.334 39.698,9.538C41.187,2.664 29.694,-5.281 23.881,-6.789C17.996,-8.315 -30.424,-19.663 -34.292,-16.182Z" style="fill:rgb(251,249,250);fill-rule:nonzero;"/>
                </g>
            </g>
            <g transform="matrix(0.962152,-0.272515,0.272515,0.962152,304.256,218.742)">
                <g>
                    <path d="M-9.201,-54.569C-18.214,-53.888 -19.352,-42.943 -16.146,-10.41C-12.94,22.125 -13.664,45.603 -6.142,51.173C3.049,57.979 14.633,52.083 15.702,43.678C16.771,35.274 10.007,-34.031 7.067,-41.351C4.129,-48.672 -0.188,-55.25 -9.201,-54.569Z" style="fill:rgb(251,249,250);fill-rule:nonzero;"/>
                </g>
            </g>
            <g transform="matrix(0.9996,0.0282667,-0.0282667,0.9996,-350.463,-400.466)">
                <g transform="matrix(1,0,0,1,626.674,584.042)">
                    <path d="M0,4.702C-2.55,4.702 -4.624,2.593 -4.624,0C-4.624,-2.593 -2.55,-4.702 0,-4.702C2.55,-4.702 4.624,-2.593 4.624,0C4.624,2.593 2.55,4.702 0,4.702Z" style="fill:white;fill-rule:nonzero;"/>
                </g>
                <g transform="matrix(1,0,0,1,626.673,584.042)">
                    <path d="M0,-3.983C2.153,-3.983 3.904,-2.195 3.904,0C3.904,2.196 2.153,3.982 0,3.982C-2.152,3.982 -3.903,2.196 -3.903,0C-3.903,-2.195 -2.152,-3.983 0,-3.983ZM0,-5.423C-2.951,-5.423 -5.344,-2.994 -5.344,0C-5.344,2.995 -2.951,5.422 0,5.422C2.952,5.422 5.345,2.995 5.345,0C5.345,-2.994 2.952,-5.423 0,-5.423Z" style="fill-rule:nonzero;"/>
                </g>
                <g transform="matrix(1,0,0,1,582.089,594.66)">
                    <path d="M-9.656,17.758C-9.656,17.758 -9.761,-5.246 -9.033,-8.269C-8.053,-12.336 -1.641,-17.758 5.217,-10.618C9.76,-2.937 7.444,15.861 7.444,15.861" style="fill-opacity:0;fill-rule:nonzero;stroke:black;stroke-width:1.44px;stroke-linecap:butt;stroke-linejoin:miter;stroke-miterlimit:10;"/>
                </g>
                <g transform="matrix(1,0,0,1,572.428,613.567)">
                    <path d="M3.445,-0.001C3.445,1.76 1.902,3.188 0,3.188C-1.903,3.188 -3.445,1.76 -3.445,-0.001C-3.445,-1.761 -1.903,-3.188 0,-3.188C1.902,-3.188 3.445,-1.761 3.445,-0.001Z" style="fill:rgb(26,26,26);fill-rule:nonzero;"/>
                </g>
                <g transform="matrix(1,0,0,1,590.051,611.001)">
                    <path d="M3.445,-0.001C3.445,1.76 1.902,3.188 0,3.188C-1.903,3.188 -3.445,1.76 -3.445,-0.001C-3.445,-1.761 -1.903,-3.188 0,-3.188C1.902,-3.188 3.445,-1.761 3.445,-0.001Z" style="fill:rgb(26,26,26);fill-rule:nonzero;"/>
                </g>
                <g transform="matrix(1,0,0,1,604.844,552.911)">
                    <path d="M-23.417,27.729C-23.417,27.729 -25.354,-25.56 -1.72,-26.805C15.831,-27.729 21.235,-21.353 23.027,-9.452C25.354,5.997 22.93,26.708 22.93,26.708" style="fill-opacity:0;fill-rule:nonzero;stroke:black;stroke-width:1.69px;stroke-linecap:butt;stroke-linejoin:miter;stroke-miterlimit:10;"/>
                </g>
            </g>
            <g transform="matrix(0.996299,0.0859518,-0.0859518,0.996299,-673.454,-461.386)">
                <g transform="matrix(1,0,0,1,962.302,497.586)">
                    <path d="M-17.645,-20.127C-17.645,-20.127 -25.89,27.445 -4.766,32.542C16.358,37.64 22.026,10.063 22.026,9.671C22.026,9.279 25.89,-16.598 20.867,-22.48C15.843,-28.36 -7.341,-37.64 -17.645,-20.127Z" style="fill:rgb(255,184,182);fill-rule:nonzero;"/>
                </g>
                <g transform="matrix(1,0,0,1,952.575,499.037)">
                    <path d="M6.565,0.188C6.565,2.34 5.721,4.508 3.997,5.472C2.868,6.103 1.503,6.201 0,6.201C-1.643,6.201 -3.145,6.236 -4.296,5.224C-5.686,4.003 -6.565,2.2 -6.565,0.188C-6.565,-2.305 -5.214,-4.478 -3.216,-5.62C-2.265,-6.163 1.987,-6.236 2.849,-5.815C5.047,-4.739 6.565,-2.455 6.565,0.188Z" style="fill-opacity:0;fill-rule:nonzero;stroke:rgb(34,31,31);stroke-width:1.34px;stroke-linecap:butt;stroke-linejoin:miter;stroke-miterlimit:10;"/>
                </g>
                <g transform="matrix(1,0,0,1,969.541,499.037)">
                    <path d="M6.565,0.188C6.565,2.34 5.721,4.508 3.997,5.472C2.868,6.103 1.503,6.201 0,6.201C-1.643,6.201 -3.145,6.236 -4.296,5.224C-5.686,4.003 -6.565,2.2 -6.565,0.188C-6.565,-2.305 -5.214,-4.478 -3.216,-5.62C-2.265,-6.163 1.986,-6.236 2.847,-5.815C5.046,-4.739 6.565,-2.455 6.565,0.188Z" style="fill-opacity:0;fill-rule:nonzero;stroke:rgb(34,31,31);stroke-width:1.34px;stroke-linecap:butt;stroke-linejoin:miter;stroke-miterlimit:10;"/>
                </g>
                <g transform="matrix(1,0,0,1,960.934,495.69)">
                    <path d="M-2.575,0.82C-2.575,0.82 -0.563,-0.904 2.575,0.904" style="fill-opacity:0;fill-rule:nonzero;stroke:rgb(34,31,31);stroke-width:1.34px;stroke-linecap:butt;stroke-linejoin:miter;stroke-miterlimit:10;"/>
                </g>
                <g transform="matrix(1,0,0,1,980.849,495.681)">
                    <path d="M-4.743,1.644L-2.607,1.644C-0.943,1.644 4.743,-1.644 4.743,-1.644" style="fill-opacity:0;fill-rule:nonzero;stroke:rgb(34,31,31);stroke-width:1.34px;stroke-linecap:butt;stroke-linejoin:miter;stroke-miterlimit:10;"/>
                </g>
                <g transform="matrix(1,0,0,1,943.82,496.424)">
                    <path d="M2.191,0.465C2.191,0.465 -0.628,0.705 -1.568,0.787C-2.191,0.841 -0.709,-0.841 -0.709,-0.841" style="fill-opacity:0;fill-rule:nonzero;stroke:rgb(34,31,31);stroke-width:1.34px;stroke-linecap:butt;stroke-linejoin:miter;stroke-miterlimit:10;"/>
                </g>
                <g transform="matrix(1,0,0,1,962.775,517.969)">
                    <path d="M-20.523,-7.401C-20.523,-7.401 -5.753,-10.907 -4.112,-14.044C-4.112,-14.044 -0.827,-15.775 1.105,-13.716C3.037,-11.658 15.713,-6.704 20.436,-7.401C20.522,-4.003 13.825,15.776 0.772,15.602C-12.28,15.428 -17.965,0.038 -18.429,-1.66C-18.914,-3.435 -20.523,-7.401 -20.523,-7.401Z" style="fill:rgb(250,244,250);fill-rule:nonzero;"/>
                </g>
                <g transform="matrix(1,0,0,1,964.906,482.101)">
                    <path d="M-22.654,18.809C-22.654,18.809 -20.852,21.143 -21.372,14.081C-21.931,6.469 -21.901,5.267 -18.677,4.266C-15.454,3.265 -12.341,-2.071 -11.674,-9.186C-3.336,0.597 11.117,3.155 16.565,3.266C18.677,13.161 18.918,22.31 19.622,23.548C20.686,25.416 22.961,18.661 23.74,16.993C24.517,15.325 26.571,-4.072 25.57,-10.187C24.569,-16.301 13.007,-23.416 4.669,-24.417C-3.669,-25.417 -25.458,-23.192 -26.013,-6.294C-26.57,10.603 -24.322,18.809 -22.654,18.809Z" style="fill-rule:nonzero;"/>
                </g>
            </g>
        </g>
        <g transform="matrix(-1,0,0,1,560,506.733)">
            <g transform="matrix(-0.55326,0.833009,-0.833009,-0.55326,110.099,144.268)">
                <g>
                    <path d="M-5.585,6.085C-4.959,7.579 -6.328,17.579 -4.047,17.942C-1.001,18.427 -2.008,9.212 -1.028,9.272C0.584,9.37 1.933,9.059 3.054,8.675C5.209,7.622 5.551,5.509 6.06,3.293C7.922,3.68 7.356,-0.094 6.754,-1.102C4.96,-2.821 3.527,-4.905 1.965,-6.827C-7.922,-9.923 -7.753,0.907 -5.585,6.085Z" style="fill:rgb(255,184,182);fill-rule:nonzero;"/>
                </g>
            </g>
            <g transform="matrix(-0.650654,0.759374,-0.759374,-0.650654,139.089,171.226)">
                <g>
                    <path d="M-8.055,-25.418C-8.055,-25.418 -10.157,32.853 -8.055,35.115C-5.953,37.377 -0.174,36.562 2.628,35.657C4.73,32.853 8.67,-22.229 9.108,-25.447C10.158,-33.158 -7.677,-37.377 -8.055,-25.418Z" style="fill:rgb(133,194,248);fill-rule:nonzero;"/>
                </g>
            </g>
            <g transform="matrix(0.79911,0.601184,-0.601184,0.79911,178.313,167.014)">
                <g>
                    <path d="M6.973,-37.016C0.742,-38.408 -4.825,-35.77 -8.32,-23.049C-10.755,-14.191 -13.662,10.37 -13.136,27.742C-13.141,35.744 2.59,37.009 4.202,27.532C6.592,13.477 9.534,-4.738 9.534,-4.738C9.534,-4.738 16.267,-32.385 6.973,-37.016Z" style="fill:rgb(133,194,248);fill-rule:nonzero;"/>
                </g>
            </g>
            <g transform="matrix(1,-1.36695e-05,1.36695e-05,1,-267.012,-439.994)">
                <g transform="matrix(1,0,0,1,454.239,972.307)">
                    <path d="M1.904,-12.283C1.904,-6.719 -16.09,12.69 -16.09,12.69C-16.09,12.69 -9.391,17.848 -7.421,17.848C-5.451,17.848 11.492,6.446 13.594,2.239C15.696,-1.968 16.09,-16.897 16.09,-16.897C16.09,-16.897 1.904,-17.847 1.904,-12.283Z" style="fill:rgb(240,238,239);fill-rule:nonzero;"/>
                </g>
                <g transform="matrix(1,0,0,1,449.642,975.971)">
                    <path d="M22.263,-18.12L22.263,21.377L16.615,20.563L15.039,11.876L6.107,19.612C6.107,19.612 -18.717,19.341 -18.717,18.934C-18.717,18.527 -22.263,13.641 -21.081,12.691C-19.899,11.74 -10.557,7.414 -11.23,6.719C-11.508,6.431 -0.328,10.247 4.4,8.619C9.128,6.99 18.585,-14.862 18.585,-18.12C18.585,-21.377 22.263,-18.12 22.263,-18.12Z" style="fill:rgb(41,85,177);fill-rule:nonzero;"/>
                </g>
            </g>
            <g transform="matrix(1,-9.07192e-06,9.07192e-06,1,196.829,459.011)">
                <g>
                    <path d="M-17.692,-40.804C-16.384,-23.181 -15.612,-8.296 -15.612,-3.207C-15.612,7.65 -13.612,60.854 -13.612,60.854L12.854,63.49C12.854,63.49 16.45,4.049 17.692,-42.456C16.632,-63.49 -16.843,-61.419 -17.692,-40.804Z" style="fill:rgb(93,171,255);fill-rule:nonzero;"/>
                </g>
            </g>
            <g transform="matrix(1,0,0,1,-267,-440)">
                <g transform="matrix(1,0,0,1,460.938,809.912)">
                    <path d="M20.582,47.678C20.952,33.821 21.114,21.108 20.908,11.463C20.814,7.05 21.002,-7.982 21.106,-9.645C22.998,-39.872 21.589,-68.612 17.649,-69.698C13.708,-70.784 -17.582,-71.507 -19.741,-60.468C-19.741,-60.468 -22.115,-53.239 -22.673,-39.98C-22.998,-32.252 -22.708,-22.479 -20.967,-10.885C-18.454,5.847 -16.284,29.348 -14.802,49.33C-12.572,71.507 19.915,67.362 20.582,47.678Z" style="fill:rgb(93,171,255);fill-rule:nonzero;"/>
                </g>
                <g transform="matrix(1,0,0,1,460.799,775.133)">
                    <path d="M17.788,-34.92C13.848,-36.006 -17.442,-36.729 -19.602,-25.691C-19.602,-25.691 -21.976,-18.461 -22.534,-5.201C-12.753,-2.997 -1.142,-3.513 6.858,-9.023C6.858,7.249 16.394,22.326 21.052,36.729C21.281,30.782 21.242,25.823 21.306,24.157C22.534,-8.266 21.728,-33.834 17.788,-34.92Z" style="fill:rgb(18,122,200);fill-rule:nonzero;"/>
                </g>
            </g>
            <g transform="matrix(1,0,0,1,-267,-440)">
                <g transform="matrix(1,0,0,1,502.115,978.98)">
                    <path d="M-9.019,-22.892C-9.019,-22.892 -14.973,18.548 -5.517,20.72C3.94,22.892 10.245,20.72 10.245,20.72C10.245,20.72 14.974,3.89 8.319,-21.445L-9.019,-22.892Z" style="fill:rgb(41,85,177);fill-rule:nonzero;"/>
                </g>
                <g transform="matrix(1,0,0,1,501.72,970.474)">
                    <path d="M-7.224,-10.994C-7.224,-10.994 -10.245,17.644 -4.334,18.187C1.576,18.73 8.669,17.508 8.669,17.508C8.669,17.508 10.245,-3.258 6.568,-10.994C2.89,-18.73 -7.224,-10.994 -7.224,-10.994Z" style="fill:rgb(240,238,239);fill-rule:nonzero;"/>
                </g>
            </g>
            <g transform="matrix(1,0,0,1,235.551,457.55)">
                <g>
                    <path d="M-17.714,-41.168C-14.571,2.335 -10.42,64.781 -10.42,64.781L13.223,64.781C13.223,64.781 15.641,-0.454 17.714,-43.872C14.16,-64.611 -17.714,-64.78 -17.714,-41.168Z" style="fill:rgb(93,171,255);fill-rule:nonzero;"/>
                </g>
            </g>
            <g transform="matrix(1,0,0,1,-267,-440)">
                <g transform="matrix(1,0,0,1,499.772,807.658)">
                    <path d="M25.117,-30.716C24.973,-50.985 22.044,-58.143 22.044,-58.143C21.665,-64.057 -20.248,-68.185 -23.401,-63.299C-24.877,-61.01 -25.175,-54.47 -24.573,-44.966C-23.89,-34.181 -22.05,-19.578 -19.461,-3.037C-18.31,4.32 -17.132,18.311 -14.935,48.724C-9.347,68.186 18.296,66.531 20.493,46.02C21.832,17.966 22.865,7.835 23.549,0.68C24.779,-12.197 25.175,-22.522 25.117,-30.716Z" style="fill:rgb(93,171,255);fill-rule:nonzero;"/>
                </g>
                <g transform="matrix(1,0,0,1,499.743,758.207)">
                    <path d="M-23.372,-13.849C-24.849,-11.56 -25.145,-5.02 -24.543,4.484C-21.255,4.241 -17.789,3.672 -14.936,5.637C-3.228,12.089 11.371,18.112 25.145,18.735C25.001,-1.535 22.074,-8.692 22.074,-8.692C21.694,-14.606 -20.22,-18.735 -23.372,-13.849Z" style="fill:rgb(18,122,200);fill-rule:nonzero;"/>
                </g>
            </g>
            <g transform="matrix(0.899829,0.0693861,-0.0693861,0.899829,229.203,95.9197)">
                <g>
                    <path d="M-21.483,32.774C-19.759,33.901 19.148,37.516 19.672,34.65C20.196,31.784 28.314,-0.787 22.572,-17.814C16.83,-34.842 6.138,-37.516 -2.079,-36.624C-10.296,-35.733 -28.314,-31.872 -26.829,-9.202C-25.344,13.469 -24.057,31.091 -21.483,32.774Z" style="fill-rule:nonzero;"/>
                </g>
            </g>
            <g transform="matrix(0.999116,0.042039,-0.042039,0.999116,-234.656,-459.668)">
                <g transform="matrix(1,0,0,1,485.552,668.715)">
                    <path d="M27.536,-22.448C27.534,-22.563 27.532,-22.672 27.529,-22.785C27.505,-24.121 27.49,-25.39 27.49,-26.539C27.49,-52.175 45.809,-67.437 29.609,-86.139C26.525,-89.698 -6.292,-96.997 -23.805,-89.939C-31.523,-86.829 -29.658,-78.028 -32.852,-68.947C-36.905,-57.422 -44.001,-45.804 -42.63,-36.492C-42.535,-35.852 -41.89,-34.994 -40.97,-34.035C-38.073,-31.013 -32.388,-26.962 -32.122,-25.361C-31.799,-23.427 -32.007,-19.017 -32.566,-13.024C-35.218,15.422 -50.765,78.41 -50.476,83.492C-50.476,83.492 -14.697,96.997 42.044,85.778C32.779,58.081 28.033,2.608 27.536,-22.448Z" style="fill:rgb(93,171,255);fill-rule:nonzero;"/>
                </g>
                <g transform="matrix(1,0,0,1,478.834,645.088)">
                    <path d="M34.253,1.178C34.251,1.063 34.25,0.954 34.247,0.841C25.338,8.017 12.643,9.748 5.972,1.477C1.55,-1.57 11.868,-7.662 10.394,-13.755C1.55,-6.139 -14.664,-6.139 -19.085,-16.8C-21.351,-9.778 -27.966,-9.953 -34.253,-10.409C-31.356,-7.387 -25.671,-3.335 -25.405,-1.734C-25.082,0.2 -25.29,4.609 -25.849,10.602C-4.77,16.484 17.941,16.8 34.253,1.178Z" style="fill:rgb(56,146,228);fill-rule:nonzero;"/>
                </g>
                <g transform="matrix(1,0,0,1,484.251,573.016)">
                    <path d="M-9.019,-11.37L-11.821,10.375L-7.618,23.133L11.821,7.117C11.821,7.117 9.194,-13.937 10.507,-18.535C11.821,-23.132 -10.158,-20.961 -9.019,-11.37Z" style="fill:rgb(255,184,182);fill-rule:nonzero;"/>
                </g>
                <g transform="matrix(1,0,0,1,484.251,583.181)">
                    <path d="M-11.47,-9.413L-11.822,0.209L-7.617,12.967L11.822,-3.048L11.448,-10.313L-4.203,-0.904C-4.203,-0.904 -11.341,-12.967 -11.47,-9.413Z" style="fill:rgb(250,244,250);fill-rule:nonzero;"/>
                </g>
                <g transform="matrix(1,0,0,1,458.592,606.953)">
                    <path d="M-5.892,-1.697L-5.892,0.746C-5.892,0.746 4.446,1.697 5.563,1.358L5.891,-1.221L-5.892,-1.697Z" style="fill:rgb(250,244,250);fill-rule:nonzero;"/>
                </g>
            </g>
            <g transform="matrix(0.947188,0.073038,-0.073038,0.947188,-100.501,-414.059)">
                <g transform="matrix(1,0,0,1,385.327,506.023)">
                    <path d="M-19.387,-15.672C-19.387,-15.672 -23.839,29.091 -6.4,33.788C11.039,38.485 20.953,5.018 21.613,-3.595C23.84,-32.638 -15.769,-38.485 -19.387,-15.672Z" style="fill:rgb(255,184,182);fill-rule:nonzero;"/>
                </g>
                <g transform="matrix(1,0,0,1,384.017,526.858)">
                    <path d="M-18.888,-8.336C-18.888,-8.336 -8.801,-14.662 -0.522,-14.015C7.757,-13.368 18.888,-6.366 18.888,-6.366C18.888,-6.366 16.57,14.662 -0.452,14.554C-9.488,14.497 -14.319,8.347 -15.988,4.249C-17.172,1.345 -18.888,-8.336 -18.888,-8.336Z" style="fill:rgb(250,244,250);fill-rule:nonzero;"/>
                </g>
                <g transform="matrix(1,0,0,1,386.567,488.749)">
                    <path d="M-3.927,-13.101C-3.927,-13.101 -21.549,-14.949 -22.473,0.033C-23.397,15.015 -22.473,11.319 -22.473,11.319C-22.473,11.319 -5.367,8.613 2.877,3.993C6.302,2.013 8.349,-1.947 8.349,-1.947C8.349,-1.947 14.552,14.685 21.153,16.731C23.397,12.903 21.821,1.881 20.464,-1.551C19.107,-4.983 6.237,-16.731 -3.927,-13.101Z" style="fill-rule:nonzero;"/>
                </g>
            </g>
            <g transform="matrix(-0.979321,-0.202314,0.202314,-0.979321,348.139,201.232)">
                <g>
                    <path d="M5.996,-6.121C5.996,-6.121 1.346,-8.396 -1.053,-8.497C-3.452,-8.599 -8.004,-5.666 -7.514,-5.109C-7.025,-4.553 -5.948,-3.996 -5.948,-3.996C-5.948,-3.996 -10.574,-2.63 -9.986,-1.643C-9.399,-0.657 -6.829,8.599 -2.423,8.295C1.982,7.991 9.838,4.35 10.205,1.618C10.573,-1.113 7.587,-6.5 5.996,-6.121Z" style="fill:rgb(255,184,182);fill-rule:nonzero;"/>
                </g>
            </g>
            <g transform="matrix(-0.922724,-0.38546,0.38546,-0.922724,308.947,207.152)">
                <g>
                    <path d="M-29.277,11.081C-29.277,11.081 -0.589,-14.546 19.244,-21.061C25.832,-22.889 30.108,-13.345 26.988,-8.331C24.344,-4.082 -24.548,22.889 -24.548,22.889C-24.548,22.889 -30.108,15.804 -29.277,11.081Z" style="fill:rgb(133,194,248);fill-rule:nonzero;"/>
                </g>
            </g>
            <g transform="matrix(0.967163,-0.254159,0.254159,0.967163,267.598,182.279)">
                <g>
                    <path d="M2.201,36.235C2.201,36.235 -5.063,17.865 -10.491,-4.575C-15.921,-27.014 -19.423,-37.148 -12.943,-40.767C-6.464,-44.387 -0.684,-42.605 4.394,-28.67C9.473,-14.736 17.841,30.448 18.324,33.492C19.424,40.429 5.149,44.387 2.201,36.235Z" style="fill:rgb(133,194,248);fill-rule:nonzero;"/>
                </g>
            </g>
        </g>
        <g transform="matrix(1,0,0,1,314,778.733)">
            <g transform="matrix(1,0,0,1,-308,-666)">
                <g transform="matrix(1,0,0,1,866.963,866.922)">
                    <rect x="-49.893" y="-6.692" width="99.785" height="13.384" style="fill:rgb(33,71,132);fill-rule:nonzero;"/>
                </g>
                <g transform="matrix(1,0,0,1,866.963,845.786)">
                    <path d="M49.893,9.67C49.893,-0.373 41.747,-8.527 31.695,-8.527L20.657,-8.527L20.657,-14.444L-18.643,-14.444L-18.643,-8.527L-31.697,-8.527C-41.75,-8.527 -49.893,-0.373 -49.893,9.67L-49.893,14.444L49.893,14.444L49.893,9.67Z" style="fill:rgb(252,253,255);fill-rule:nonzero;"/>
                </g>
                <g transform="matrix(1,0,0,1,866.963,968.449)">
                    <path d="M-49.892,-16.219L-49.892,-1.979C-49.892,8.074 -41.748,16.219 -31.696,16.219L31.695,16.219C41.748,16.219 49.893,8.074 49.893,-1.979L49.893,-16.219L-49.892,-16.219Z" style="fill:rgb(33,71,132);fill-rule:nonzero;"/>
                </g>
                <g transform="matrix(1,0,0,1,866.964,908.001)">
                    <path d="M49.893,-52.55L49.893,58.466C49.893,68.518 41.748,76.662 31.696,76.662L-31.696,76.662C-41.749,76.662 -49.893,68.518 -49.893,58.466L-49.893,-52.55C-49.893,-62.592 -41.749,-70.745 -31.696,-70.745L-18.642,-70.745L-18.642,-76.662L-14.401,-76.662L-14.401,-66.505L-31.696,-66.505C-39.395,-66.505 -45.651,-60.237 -45.651,-52.55L-45.651,58.466C-45.651,66.164 -39.395,72.422 -31.696,72.422L31.696,72.422C39.384,72.422 45.651,66.164 45.651,58.466L45.651,-52.55C45.651,-60.237 39.384,-66.505 31.696,-66.505L16.415,-66.505L16.415,-76.662L20.657,-76.662L20.657,-70.745L31.696,-70.745C41.748,-70.745 49.893,-62.592 49.893,-52.55Z" style="fill:rgb(93,171,255);fill-rule:nonzero;"/>
                </g>
                <g transform="matrix(1,0,0,1,867.97,829.391)">
                    <rect x="-19.65" y="-1.951" width="39.3" height="3.902" style="fill:rgb(0,108,113);fill-rule:nonzero;"/>
                </g>
                <g transform="matrix(1,0,0,1,867.971,818.489)">
                    <rect x="-26.966" y="-8.95" width="53.932" height="17.9" style="fill:rgb(253,253,253);fill-rule:nonzero;"/>
                </g>
                <g transform="matrix(1,0,0,1,866.964,908.001)">
                    <path d="M49.893,-52.55L49.893,58.466C49.893,68.518 41.748,76.662 31.696,76.662L-31.696,76.662C-41.749,76.662 -49.893,68.518 -49.893,58.466L-49.893,-52.55C-49.893,-62.592 -41.749,-70.745 -31.696,-70.745L-18.642,-70.745L-18.642,-76.662L-14.401,-76.662L-14.401,-66.505L-31.696,-66.505C-39.395,-66.505 -45.651,-60.237 -45.651,-52.55L-45.651,58.466C-45.651,66.164 -39.395,72.422 -31.696,72.422L31.696,72.422C39.384,72.422 45.651,66.164 45.651,58.466L45.651,-52.55C45.651,-60.237 39.384,-66.505 31.696,-66.505L16.415,-66.505L16.415,-76.662L20.657,-76.662L20.657,-70.745L31.696,-70.745C41.748,-70.745 49.893,-62.592 49.893,-52.55Z" style="fill:rgb(115,212,223);fill-rule:nonzero;"/>
                </g>
                <g transform="matrix(1,0,0,1,866.962,912.922)">
                    <rect x="-49.893" y="-39.308" width="99.786" height="78.616" style="fill:rgb(222,222,224);fill-rule:nonzero;"/>
                </g>
                <g transform="matrix(1,0,0,1,866.963,890.509)">
                    <rect x="-44.628" y="-3.277" width="89.256" height="6.554" style="fill:rgb(253,253,253);fill-rule:nonzero;"/>
                </g>
                <g transform="matrix(1,0,0,1,833.911,900.411)">
                    <rect x="-8.726" y="-1.639" width="17.452" height="3.277" style="fill:rgb(253,253,253);fill-rule:nonzero;"/>
                </g>
                <g transform="matrix(1,0,0,1,851.897,906.965)">
                    <rect x="-29.562" y="-1.638" width="59.124" height="3.276" style="fill:rgb(253,253,253);fill-rule:nonzero;"/>
                </g>
                <g transform="matrix(1,0,0,1,851.897,913.518)">
                    <rect x="-29.562" y="-1.638" width="59.124" height="3.276" style="fill:rgb(253,253,253);fill-rule:nonzero;"/>
                </g>
                <g transform="matrix(1,0,0,1,833.911,920.072)">
                    <rect x="-8.726" y="-1.638" width="17.452" height="3.276" style="fill:rgb(253,253,253);fill-rule:nonzero;"/>
                </g>
                <g transform="matrix(1,0,0,1,851.897,926.625)">
                    <rect x="-29.562" y="-1.638" width="59.124" height="3.277" style="fill:rgb(253,253,253);fill-rule:nonzero;"/>
                </g>
                <g transform="matrix(1,0,0,1,851.897,933.178)">
                    <rect x="-29.562" y="-1.638" width="59.124" height="3.277" style="fill:rgb(253,253,253);fill-rule:nonzero;"/>
                </g>
                <g transform="matrix(1,0,0,1,898.128,916.794)">
                    <rect x="-13.464" y="-18.023" width="26.928" height="36.046" style="fill:rgb(255,184,182);fill-rule:nonzero;"/>
                </g>
            </g>
            <g transform="matrix(1,1.7524e-06,-1.7524e-06,1,-307.998,-666.002)">
                <g transform="matrix(1,0,0,1,908.236,977.164)">
                    <path d="M24.573,16.234L-3.372,19.276C-13.367,20.364 -22.352,13.144 -23.44,3.149L-23.484,2.747C-24.572,-7.248 -17.352,-16.234 -7.357,-17.322L20.589,-20.364L24.573,16.234Z" style="fill:rgb(255,184,182);fill-rule:nonzero;"/>
                </g>
                <g transform="matrix(1,0,0,1,953.397,973.033)">
                    <path d="M-20.589,20.365L7.356,17.323C17.351,16.234 24.572,7.249 23.483,-2.746L23.44,-3.148C22.351,-13.143 13.367,-20.364 3.372,-19.276L-24.573,-16.234L-20.589,20.365Z" style="fill:rgb(253,253,253);fill-rule:nonzero;"/>
                </g>
            </g>
            <g transform="matrix(1,-3.48452e-06,3.48452e-06,1,-308.003,-665.997)">
                <g transform="matrix(1,0,0,1,791.4,970.648)">
                    <path d="M14.011,21.436L-10.602,13.602C-19.406,10.8 -24.271,1.392 -21.469,-7.412L-21.357,-7.766C-18.555,-16.57 -9.147,-21.436 -0.343,-18.633L24.271,-10.8L14.011,21.436Z" style="fill:rgb(6,90,94);fill-rule:nonzero;"/>
                </g>
                <g transform="matrix(1,0,0,1,829.683,981.284)">
                    <path d="M-24.271,10.8L0.342,18.633C9.146,21.436 18.555,16.57 21.357,7.766L21.469,7.412C24.271,-1.391 19.406,-10.801 10.602,-13.602L-14.012,-21.436L-24.271,10.8Z" style="fill:rgb(253,253,253);fill-rule:nonzero;"/>
                </g>
            </g>
            <g transform="matrix(1,3.79347e-06,-3.79347e-06,1,-307.996,-666.003)">
                <g transform="matrix(1,0,0,1,721.509,968.719)">
                    <path d="M27.01,8.88L1.41,20.492C-7.746,24.646 -18.536,20.59 -22.689,11.434L-22.856,11.066C-27.01,1.909 -22.953,-8.881 -13.797,-13.034L11.802,-24.646L27.01,8.88Z" style="fill:rgb(255,184,182);fill-rule:nonzero;"/>
                </g>
                <g transform="matrix(1,0,0,1,760.321,952.953)">
                    <path d="M-11.802,24.646L13.798,13.034C22.954,8.88 27.01,-1.909 22.856,-11.065L22.689,-11.434C18.536,-20.59 7.746,-24.646 -1.41,-20.492L-27.01,-8.88L-11.802,24.646Z" style="fill:rgb(253,253,253);fill-rule:nonzero;"/>
                </g>
            </g>
            <g transform="matrix(1,0,0,1,-308,-666)">
                <g transform="matrix(1,0,0,1,484.36,898.999)">
                    <path d="M98.928,1.681C98.928,-6.546 92.259,-13.215 84.032,-13.215L-84.033,-13.215C-92.26,-13.215 -98.928,-6.546 -98.928,1.681L-98.928,13.215L98.928,13.215L98.928,1.681Z" style="fill:rgb(253,253,253);fill-rule:nonzero;"/>
                </g>
                <g transform="matrix(1,0,0,1,484.36,915.578)">
                    <rect x="-98.928" y="-3.364" width="197.856" height="6.727" style="fill:rgb(204,205,210);fill-rule:nonzero;"/>
                </g>
                <g transform="matrix(1,0,0,1,484.359,987.176)">
                    <rect x="-98.928" y="-2.883" width="197.856" height="5.766" style="fill:rgb(204,205,210);fill-rule:nonzero;"/>
                </g>
                <g transform="matrix(1,0,0,1,484.36,951.616)">
                    <rect x="-98.928" y="-32.676" width="197.856" height="65.353" style="fill:rgb(253,253,253);fill-rule:nonzero;"/>
                </g>
                <g transform="matrix(1,0,0,1,484.359,998.468)">
                    <path d="M-98.928,-8.409L-98.928,-6.487C-98.928,1.739 -92.26,8.409 -84.033,8.409L84.032,8.409C92.259,8.409 98.928,1.739 98.928,-6.487L98.928,-8.409L-98.928,-8.409Z" style="fill:rgb(253,253,253);fill-rule:nonzero;"/>
                </g>
                <g transform="matrix(1,0,0,1,484.36,881.461)">
                    <path d="M25.5,-21.982L-25.5,-21.982C-34.904,-21.982 -42.527,-14.358 -42.527,-4.955L-42.527,21.982L-34.438,21.982L-34.438,-4.955C-34.438,-9.889 -30.425,-13.893 -25.5,-13.893L25.5,-13.893C30.424,-13.893 34.438,-9.889 34.438,-4.955L34.438,21.982L42.527,21.982L42.527,-4.955C42.527,-14.358 34.903,-21.982 25.5,-21.982Z" style="fill:rgb(22,44,81);fill-rule:nonzero;"/>
                </g>
                <g transform="matrix(1,0,0,1,484.359,951.616)">
                    <path d="M25.709,-7.688L7.688,-7.688L7.688,-25.708L-7.688,-25.708L-7.688,-7.688L-25.708,-7.688L-25.708,7.69L-7.688,7.69L-7.688,25.708L7.688,25.708L7.688,7.69L25.709,7.69L25.709,-7.688Z" style="fill:rgb(230,94,117);fill-rule:nonzero;"/>
                </g>
            </g>
        </g>
    </g>
</svg>
